# xmcd CD database file
#
# Track frame offsets:
#	150
#	12629
#	24061
#	34046
#	47199
#	56984
#	65859
#	77234
#	91288
#	105790
#
# Disc length: 1554 seconds
#
# Revision: 1
# Processed by: cddbd v1.5.2PL0 Copyright (c) Steve Scherf et al.
# Submitted via: CDex 1.70beta2
#
DISCID=7c06100a
DTITLE=Frank Sinatra - Collection - Vol. 1
DYEAR=1995
DGENRE=Jazz
TTITLE0=Come Fly with Me
TTITLE1=Dancing in the Dark
TTITLE2=All the Way
TTITLE3=You Make Me Feel So Young
TTITLE4=Love Me or Leave Me
TTITLE5=On the Sunny Side of the Streel
TTITLE6=Blue Skies
TTITLE7=Begin the Beguine
TTITLE8=I Don´t Stand a Ghost of a Chance
TTITLE9=Night and Day
EXTD=YEAR: 1995
EXTT0=
EXTT1=
EXTT2=
EXTT3=
EXTT4=
EXTT5=
EXTT6=
EXTT7=
EXTT8=
EXTT9=
PLAYORDER=
